<?xml version="1.0" encoding="iso-8859-1"?>
<!-- Generator: Adobe Illustrator 18.0.0, SVG Export Plug-In . SVG Version: 6.00 Build 0)  -->
<!DOCTYPE svg PUBLIC "-//W3C//DTD SVG 1.1//EN" "http://www.w3.org/Graphics/SVG/1.1/DTD/svg11.dtd">
<svg version="1.1" id="Capa_1" xmlns="http://www.w3.org/2000/svg" xmlns:xlink="http://www.w3.org/1999/xlink" x="0px" y="0px"
	 viewBox="0 0 424.168 424.168" style="enable-background:new 0 0 424.168 424.168;" xml:space="preserve">
<g>
	<path d="M73.828,245.059c-2.761,0-5,2.239-5,5s2.239,5,5,5h52.721c2.761,0,5-2.239,5-5s-2.239-5-5-5H73.828z"/>
	<path d="M182.271,238.744c9.984,0,18.106-8.123,18.106-18.107V107.684c0-9.984-8.122-18.107-18.106-18.107H18.105
		C8.122,89.576,0,97.699,0,107.684v112.953c0,9.984,8.122,18.107,18.105,18.107H182.271z M100.188,225.873
		c-3.258,0-5.897-2.641-5.897-5.898c0-3.258,2.64-5.898,5.897-5.898c3.259,0,5.898,2.641,5.898,5.898
		C106.087,223.232,103.447,225.873,100.188,225.873z M10,107.684c0-4.471,3.636-8.107,8.105-8.107h164.166
		c4.47,0,8.106,3.637,8.106,8.107v94.074H10V107.684z"/>
	<path d="M406.063,89.576H241.896c-9.983,0-18.105,8.123-18.105,18.107v112.953c0,9.984,8.122,18.107,18.105,18.107h164.166
		c9.983,0,18.105-8.123,18.105-18.107V107.684C424.168,97.699,416.046,89.576,406.063,89.576z M323.979,225.873
		c-3.259,0-5.898-2.641-5.898-5.898c0-3.258,2.64-5.898,5.898-5.898c3.259,0,5.898,2.641,5.898,5.898
		C329.878,223.232,327.238,225.873,323.979,225.873z M414.168,201.758H233.791v-94.074c0-4.471,3.636-8.107,8.105-8.107h164.166
		c4.469,0,8.105,3.637,8.105,8.107V201.758z"/>
	<path d="M297.619,255.059h52.721c2.761,0,5-2.239,5-5s-2.239-5-5-5h-52.721c-2.761,0-5,2.239-5,5S294.858,255.059,297.619,255.059z
		"/>
	<path d="M407.084,311.742h-28.105v-8.754c0-2.761-2.239-5-5-5h-14.804v-1.93c0-2.761-2.239-5-5-5h-25.196v-25.4
		c0-2.761-2.239-5-5-5s-5,2.239-5,5v25.4h-25.197c-2.761,0-5,2.239-5,5v1.93h-14.803c-2.761,0-5,2.239-5,5v8.754H155.189v-8.754
		c0-2.761-2.239-5-5-5h-14.803v-1.93c0-2.761-2.239-5-5-5h-25.197v-25.4c0-2.761-2.239-5-5-5s-5,2.239-5,5v25.4H69.992
		c-2.761,0-5,2.239-5,5v1.93H50.188c-2.761,0-5,2.239-5,5v8.754H17.084c-2.761,0-5,2.239-5,5c0,2.761,2.239,5,5,5h28.104v7.85
		c0,2.761,2.239,5,5,5h100c2.761,0,5-2.239,5-5v-7.85h113.791v7.85c0,2.761,2.239,5,5,5h100c2.761,0,5-2.239,5-5v-7.85h28.105
		c2.761,0,5-2.239,5-5C412.084,313.982,409.845,311.742,407.084,311.742z"/>
</g>
<g>
</g>
<g>
</g>
<g>
</g>
<g>
</g>
<g>
</g>
<g>
</g>
<g>
</g>
<g>
</g>
<g>
</g>
<g>
</g>
<g>
</g>
<g>
</g>
<g>
</g>
<g>
</g>
<g>
</g>
</svg>
